# xmcd
# 
# Track frame offsets:
#     150
#     12957
#     25665
#     39320
#     53600
#     67205
#     79290
#     92937
#     106127
#     119904
#     134332
#     147190
#     159620
#     173592
#     185480
#     197300
#     211084
#     222900
#     236497
#     245842
#     259517
# 
# Disc length: 3641
# 
# Revision: 2
# Processed by: cddbd v1.5.2PL0 Copyright (c) Steve Scherf et al.
# Submitted via: fre:ac v1.0.27
# 
DISCID=270e3715
DTITLE=Various Artist - Blues Gold [disc 1]
DYEAR=2006
DGENRE=Electric Blues
TTITLE0=Muddy Waters - (I'm Your) Hoochie Coochie Man
TTITLE1=Big Mama Thornton - Hound Dog
TTITLE2=T-Bone Walker - Call It Stormy Monday
TTITLE3=Lowell Fulson - Reconsider Baby
TTITLE4=Guitar Slim - The Things That I Used to Do
TTITLE5=Little Walter - My Babe
TTITLE6=Bo Diddley - I'm A Man
TTITLE7=Ray Charles - Hard Times (No One Knows Better than I)
TTITLE8=Slim Harpo - I'm a King Bee
TTITLE9=Otis Rush - So Many Roads, So Many Trains
TTITLE10=Jimmy Reed - Big Boss Man
TTITLE11=Howlin' Wolf - Spoonful
TTITLE12=Freddie King - Have You Ever Loved a Woman
TTITLE13=Junior Parker - Drivin' Wheel
TTITLE14=Bobby "Blue" Bland - Turn On Your Love Light
TTITLE15=Albert Collins - Frosty
TTITLE16=Sonny Boy Williamson (II) - Bring It On Home
TTITLE17=Buddy Guy - My Time After Awhile
TTITLE18=Junior Wells - Hoodoo Man Blues
TTITLE19=Koko Taylor - Wang Dang Doodle
TTITLE20=John Lee Hooker - One Bourbon, One Scotch, One Beer
EXTD=Compilation produced by Andy McKaie.\nExecutive producer: Pat Lawrence\nMastered by Gavin Lurssen at The Mastering Lab, Hollywood US-CA.\n2CD: UM/Hip-O B0005714-02 (2006-01-10), UPC 602498342527, BMG D214507.
EXTT0=(Willie Dixon]\nRecorded Chicago US-IL, 1954-01-07.
EXTT1=(Jerry Leiber/Mike Stoller]\nRecorded Los Angeles US-CA, 1952-08-12.
EXTT2=(T-Bone Walker]\nRecorded Hollywood US-CA, 1947-09-13.
EXTT3=(Lowell Fulson]\nRecorded Dallas US-TX, 1953-09-27.
EXTT4=(Eddie Jones]\nRecorded New Orleans US-LA, 1953-10-26.
EXTT5=(Willie Dixon]\nRecorded Chicago US-IL, 1955-01-25.
EXTT6=(Ellas McDaniel]\nRecorded Chicago US-IL, 1955-03-02.
EXTT7=(Ray Charles]\nRecorded Miami US-FL, 1955-04-23.
EXTT8=(James Moore]\nRecorded Crowley US-LA, 1957-03.
EXTT9=(Marshall Paul]\nRecorded Chicago US-IL, 1960-01.
EXTT10=(Al Smith/Luther Dixon]\nRecorded Chicago US-IL, 1960-03-29.
EXTT11=(Willie Dixon]\nRecorded Chicago US-IL, 1960-06.
EXTT12=(Billy Myles]\nRecorded Cincinnati US-OH, 1960-08-26.
EXTT13=(Roosevelt Sykes]\nRecorded Chicago US-IL, 1960-11-10.
EXTT14=(Deadric Malone/Joseph Scotti]\nRecorded Nashville US-TN, 1961-09-27.
EXTT15=(Albert Collins]\nRecorded Houston US-TX, 1962.
EXTT16=(Willie Dixon]\nRecorded Chicago US-IL, 1963-01-11.
EXTT17=(Ronald Badger/Robert Geddins/Sheldon Feinberg]\nRecorded Chicago US-IL, 1964-06-10.
EXTT18=(Junior Wells/Sonny Boy Williamson II]\nRecorded Chicago US-IL, 1965-09-22.
EXTT19=(Willie Dixon]\nRecorded Chicago US-IL, 1965-12-07.
EXTT20=(John Lee Hooker]\nRecorded Chicago US-IL, 1966-05.
PLAYORDER=
